PathFileType	4	(X/Y/Z)	/Users/itak/Documents/Research/Walk-IL/dataset/trc/00444_00167.trc
DataRate	CameraRate	NumFrames	NumMarkers	Units	OrigDataRate	OrigDataStartFrame	OrigNumFrames
100.000000	100.000000	4	53	mm	100.000000	203	542
Frame#	Time	RPSI			LPSI			L3			STRN			T10			C7			CLAV			RBAK			LBAK			LSHO			LUPA			LAEL			LAOL			LWTS			LWPS			LFRA			LIFD			LHPS			LHTS			RSHO			RUPA			RAEL			RAOL			RWTS			RWPS			RFRA			RIFD			RHTS			RHPS			RBHD			LFHD			RFHD			LBHD			LHIP			RHIP			RASI			LASI			LKNE			LTHI			LANK			LTIP			LTOE			LMT1			LMT5			LHEE			RKNE			RTHI			RANK			RTIP			RTOE			RMT1			RMT5			RHEE			
		X1	Y1	Z1	X2	Y2	Z2	X3	Y3	Z3	X4	Y4	Z4	X5	Y5	Z5	X6	Y6	Z6	X7	Y7	Z7	X8	Y8	Z8	X9	Y9	Z9	X10	Y10	Z10	X11	Y11	Z11	X12	Y12	Z12	X13	Y13	Z13	X14	Y14	Z14	X15	Y15	Z15	X16	Y16	Z16	X17	Y17	Z17	X18	Y18	Z18	X19	Y19	Z19	X20	Y20	Z20	X21	Y21	Z21	X22	Y22	Z22	X23	Y23	Z23	X24	Y24	Z24	X25	Y25	Z25	X26	Y26	Z26	X27	Y27	Z27	X28	Y28	Z28	X29	Y29	Z29	X30	Y30	Z30	X31	Y31	Z31	X32	Y32	Z32	X33	Y33	Z33	X34	Y34	Z34	X35	Y35	Z35	X36	Y36	Z36	X37	Y37	Z37	X38	Y38	Z38	X39	Y39	Z39	X40	Y40	Z40	X41	Y41	Z41	X42	Y42	Z42	X43	Y43	Z43	X44	Y44	Z44	X45	Y45	Z45	X46	Y46	Z46	X47	Y47	Z47	X48	Y48	Z48	X49	Y49	Z49	X50	Y50	Z50	X51	Y51	Z51	X52	Y52	Z52	X53	Y53	Z53	

204	2.03	-1097.062255859375	948.0687255859375	-405.1594543457031	-1028.065673828125	954.3751831054688	-529.6658325195312	-1049.324096679688	1056.320434570312	-457.8393249511719	-784.8201904296875	1226.490112304688	-330.3130493164062	-1045.589599609375	1180.88525390625	-468.7301025390625	-968.5826416015625	1441.825805664062	-417.8516845703125	-806.8082885742188	1343.357177734375	-346.6205749511719	-1079.14892578125	1329.601440429688	-369.5656127929688	-952.01416015625	1398.095703125	-522.5005493164062	-820.0762939453125	1406.865234375	-541.7599487304688	-788.1521606445312	1287.997314453125	-636.4977416992188	-769.3233642578125	1069.084594726562	-658.89111328125	-872.6265258789062	1063.003784179688	-647.9762573242188	-746.2599487304688	860.2169189453125	-586.8795166015625	-753.8245849609375	849.049560546875	-659.9148559570312	-755.010498046875	980.0026245117188	-659.8610229492188	-762.8744506835938	692.1032104492188	-596.3345336914062	-757.3868408203125	767.55908203125	-658.5791015625	-738.8031616210938	768.7342529296875	-589.720458984375	-986.8358154296875	1406.04052734375	-244.1311492919922	-1044.143798828125	1347.63330078125	-188.4556579589844	-1094.855102539062	1068.218872070312	-131.0138854980469	-1122.516845703125	1050.126342773438	-190.7892303466797	-989.163818359375	866.150634765625	-112.8120727539062	-1074.324096679688	852.4193115234375	-94.39250183105469	-1097.748413085938	1010.203552246094	-118.4593734741211	-992.766845703125	707.58251953125	-97.52496337890625	-982.8652954101562	767.6450805664062	-89.99867248535156	-1058.586547851562	766.25146484375	-83.04550170898438	-929.1622924804688	1631.112548828125	-307.02783203125	-733.2824096679688	1639.869873046875	-373.8582763671875	-799.107177734375	1645.082397460938	-261.2288513183594	-853.0178833007812	1629.250732421875	-468.2682495117188	-862.5322265625	843.7307739257812	-575.8849487304688	-1042.207641601562	863.8489379882812	-212.9659118652344	-929.7647705078125	907.336181640625	-243.4830017089844	-804.962890625	876.6622314453125	-463.3428649902344	-938.7109985351562	427.2823791503906	-544.2410888671875	-882.715576171875	574.0921020507812	-550.5926513671875	-1063.177124023438	31.07871627807617	-575.9713745117188	-966.4481201171875	277.2804870605469	-556.29833984375	-907.621826171875	49.77028274536133	-401.6085510253906	-984.79541015625	51.47679138183594	-414.6799621582031	-928.345947265625	46.73196029663086	-512.6613159179688	-1135.878662109375	34.65951156616211	-562.2269287109375	-846.9893798828125	530.461181640625	-128.6896667480469	-956.7870483398438	758.6642456054688	-161.1463317871094	-1019.230346679688	148.1256713867188	-231.6431121826172	-898.1859741210938	393.5309448242188	-142.7428741455078	-831.8745727539062	80.62506103515625	-157.8906402587891	-857.5652465820312	97.54209899902344	-221.7301177978516	-933.5814208984375	101.9684371948242	-145.7245941162109	-1045.811889648438	165.8643798828125	-305.0704650878906	
205	2.04	-1093.269653320312	947.7645874023438	-403.0637817382812	-1024.471313476562	953.7716674804688	-527.6506958007812	-1045.261596679688	1055.861206054688	-455.963134765625	-780.9445190429688	1225.878540039062	-328.3330688476562	-1041.74609375	1180.40087890625	-467.2247619628906	-964.4622192382812	1441.232177734375	-416.0913391113281	-802.965087890625	1342.752807617188	-344.5498657226562	-1075.163452148438	1329.040649414062	-368.12548828125	-947.736083984375	1397.564453125	-520.7345581054688	-815.772216796875	1406.315795898438	-539.7233276367188	-783.5907592773438	1287.461547851562	-634.2996215820312	-764.6679077148438	1068.532470703125	-656.4286499023438	-868.1402587890625	1062.626586914062	-646.11279296875	-742.5191040039062	859.3460693359375	-584.9238891601562	-749.6646118164062	848.4728393554688	-658.0580444335938	-750.5595092773438	979.4216918945312	-657.5848388671875	-759.6332397460938	691.270751953125	-595.1267700195312	-753.4291381835938	766.9930419921875	-657.0759887695312	-735.3099365234375	767.8353881835938	-588.031005859375	-983.26171875	1405.35205078125	-242.423828125	-1040.922607421875	1346.984375	-187.1604919433594	-1092.932739257812	1067.605346679688	-130.6400756835938	-1120.167114257812	1049.802612304688	-190.7064819335938	-988.4300537109375	864.9161987304688	-112.1964492797852	-1073.810546875	851.5892333984375	-94.45293426513672	-1096.209594726562	1009.570373535156	-118.2789535522461	-992.978515625	706.3267211914062	-97.35386657714844	-982.8017578125	766.4580078125	-89.60357666015625	-1058.619384765625	765.319580078125	-83.20109558105469	-924.7576293945312	1630.55908203125	-304.8077392578125	-728.8089599609375	1638.787475585938	-371.4492492675781	-794.720458984375	1644.114624023438	-258.8392944335938	-848.4857177734375	1628.625732421875	-465.948486328125	-859.296630859375	842.9769897460938	-574.129638671875	-1038.085693359375	864.234130859375	-210.8706970214844	-925.7518920898438	907.5768432617188	-241.901611328125	-801.1060180664062	876.0078125	-461.7767028808594	-936.4755249023438	426.7549438476562	-542.77490234375	-879.997802734375	573.435302734375	-548.90625	-1063.15869140625	31.11239814758301	-575.87353515625	-965.197021484375	276.8066101074219	-555.3853149414062	-907.6010131835938	49.31038665771484	-401.5756530761719	-984.7266845703125	51.31746673583984	-414.5861511230469	-928.2681884765625	46.6590461730957	-512.6336669921875	-1135.876098632812	34.82265090942383	-562.1005249023438	-840.5546875	531.7045288085938	-126.0775680541992	-951.9655151367188	759.5396728515625	-159.0378570556641	-1003.286437988281	143.1008911132812	-223.7062683105469	-888.7278442382812	393.2012939453125	-138.2258148193359	-814.0609741210938	82.00392150878906	-149.2867431640625	-840.2819213867188	97.47039794921875	-213.4320526123047	-916.3103637695312	100.311882019043	-137.4819793701172	-1030.475341796875	159.4473266601562	-297.3486328125	
206	2.05	-1089.337890625	947.34326171875	-400.9035339355469	-1020.693786621094	953.0541381835938	-525.5563354492188	-1041.108154296875	1055.333374023438	-454.0470886230469	-776.9396362304688	1225.261108398438	-326.2446899414062	-1037.707763671875	1179.853271484375	-465.5796203613281	-960.244384765625	1440.595581054688	-414.2081909179688	-798.9953002929688	1342.145629882812	-342.3887634277344	-1071.052368164062	1328.441284179688	-366.5221252441406	-943.3831787109375	1396.975708007812	-518.8323364257812	-811.4158935546875	1405.76416015625	-537.5950317382812	-779.0108642578125	1286.959106445312	-632.052490234375	-760.0015869140625	1068.013793945312	-653.9420166015625	-863.6515502929688	1062.256103515625	-644.0405883789062	-738.5587158203125	858.529052734375	-582.9466552734375	-745.4351196289062	847.9274291992188	-656.1572265625	-746.0707397460938	978.8757934570312	-655.2958374023438	-756.142333984375	690.492919921875	-593.8191528320312	-749.392822265625	766.4593505859375	-655.504150390625	-731.589599609375	766.9825439453125	-586.3139038085938	-979.5271606445312	1404.642700195312	-240.5804138183594	-1037.506713867188	1346.318603515625	-185.6979370117188	-1090.825439453125	1066.963989257812	-130.1826782226562	-1117.6318359375	1049.485107421875	-190.5444183349609	-987.66357421875	863.570556640625	-111.572883605957	-1073.259155273438	850.7067260742188	-94.54763793945312	-1094.518920898438	1008.910949707031	-118.0445175170898	-993.2864379882812	704.9570922851562	-97.26673889160156	-982.77294921875	765.1414184570312	-89.25942230224609	-1058.688354492188	764.3133544921875	-83.43098449707031	-920.2611083984375	1629.939819335938	-302.4407348632812	-724.2428588867188	1637.685180664062	-368.8902587890625	-790.2657470703125	1643.078125	-256.2851867675781	-843.873779296875	1627.98779296875	-463.4844055175781	-855.862548828125	842.1613159179688	-572.2175903320312	-1033.825073242188	864.4830322265625	-208.6916656494141	-921.6998291015625	907.7657470703125	-240.1576995849609	-797.0803833007812	875.3245849609375	-460.0020751953125	-934.0272827148438	426.1749267578125	-541.1355590820312	-877.0626220703125	572.7273559570312	-546.9815063476562	-1063.11669921875	31.14565658569336	-575.7570190429688	-963.816162109375	276.2778625488281	-554.3628540039062	-907.5191650390625	48.83233642578125	-401.5157470703125	-984.6397094726562	51.16561508178711	-414.46728515625	-928.1555786132812	46.58170318603516	-512.5878295898438	-1135.861083984375	35.00522613525391	-561.9725341796875	-834.4221801757812	532.403076171875	-123.7450256347656	-947.0763549804688	760.151123046875	-156.9621734619141	-986.581298828125	137.0239715576172	-215.0521392822266	-879.2275390625	392.2583618164062	-133.6089630126953	-795.3709106445312	82.88409423828125	-140.5405731201172	-822.2745361328125	96.89857482910156	-204.8829498291016	-898.0692138671875	97.73838043212891	-128.8034820556641	-1014.570678710938	152.0506134033203	-288.7588195800781	
207	2.06	-1085.262817382812	946.7794189453125	-398.671630859375	-1016.745788574219	952.2099609375	-523.3901977539062	-1036.890258789062	1054.724365234375	-452.0916137695312	-772.812255859375	1224.609375	-324.0395202636719	-1033.461791992188	1179.231689453125	-463.7828063964844	-955.9198608398438	1439.901611328125	-412.1953430175781	-794.8973999023438	1341.507568359375	-340.1260070800781	-1066.815795898438	1327.7890625	-364.7628784179688	-938.9404907226562	1396.318969726562	-516.7903442382812	-806.9871215820312	1405.188842773438	-535.36083984375	-774.3914184570312	1286.464721679688	-629.749267578125	-755.311279296875	1067.508544921875	-651.4474487304688	-859.1337890625	1061.859497070312	-641.77490234375	-734.3701782226562	857.7565307617188	-580.9434204101562	-741.1390380859375	847.3917846679688	-654.2067260742188	-741.54248046875	978.343505859375	-653.0059204101562	-752.3822021484375	689.7613525390625	-592.3758544921875	-745.277587890625	765.9378051757812	-653.8396606445312	-727.6365356445312	766.1685791015625	-584.5534057617188	-975.6351318359375	1403.892944335938	-238.6004943847656	-1033.903686523438	1345.614624023438	-184.0662384033203	-1088.51953125	1066.275390625	-129.6231994628906	-1114.903442382812	1049.154174804688	-190.2825622558594	-986.8543701171875	862.0974731445312	-110.9329071044922	-1072.650268554688	849.7593994140625	-94.65617370605469	-1092.66357421875	1008.207946777344	-117.7330017089844	-993.6777954101562	703.4635620117188	-97.25840759277344	-982.7708740234375	763.6455078125	-88.95516967773438	-1058.775512695312	763.22021484375	-83.71969604492188	-915.6732788085938	1629.234130859375	-299.9335021972656	-719.5897216796875	1636.556274414062	-366.1838684082031	-785.7403564453125	1641.965087890625	-253.5790252685547	-839.1786499023438	1627.321044921875	-460.8817443847656	-852.2218017578125	841.2739868164062	-570.1572265625	-1029.382446289062	864.5585327148438	-206.3956604003906	-917.5505981445312	907.8809814453125	-238.2338104248047	-792.9257202148438	874.5863647460938	-458.0400695800781	-931.3948364257812	425.5374145507812	-539.3444213867188	-873.9287719726562	571.9671020507812	-544.844482421875	-1063.058471679688	31.17390251159668	-575.6294555664062	-962.3286743164062	275.7014770507812	-553.2476806640625	-907.3665161132812	48.3547477722168	-401.4359130859375	-984.5382080078125	51.03126525878906	-414.3359985351562	-928.0198974609375	46.4935417175293	-512.539794921875	-1135.833374023438	35.20431900024414	-561.8469848632812	-828.597900390625	532.5197143554688	-121.6799545288086	-942.111083984375	760.4549560546875	-154.8934631347656	-969.1420288085938	130.0874481201172	-205.6973876953125	-869.6898803710938	390.7312316894531	-128.9091339111328	-775.9110717773438	83.36092376708984	-131.6233978271484	-803.6206665039062	95.92561340332031	-196.0670928955078	-878.9318237304688	94.41099548339844	-119.6864547729492	-998.0947265625	143.8277130126953	-279.3295593261719	
